<mxfile host="www.draw.io" modified="2020-02-07T07:40:40.815Z" agent="Mozilla/5.0 (Windows NT 10.0; WOW64) AppleWebKit/537.36 (KHTML, like Gecko) Chrome/69.0.3497.100 Safari/537.36" etag="yooGKSAPE9-Sy3k9mfbY" version="12.6.5" type="github">
  <diagram id="C5RBs43oDa-KdzZeNtuy" name="Page-1">
    <mxGraphModel dx="2249" dy="739" grid="1" gridSize="10" guides="1" tooltips="1" connect="1" arrows="1" fold="1" page="1" pageScale="1" pageWidth="827" pageHeight="1169" math="0" shadow="0">
      <root>
        <mxCell id="WIyWlLk6GJQsqaUBKTNV-0"/>
        <mxCell id="WIyWlLk6GJQsqaUBKTNV-1" parent="WIyWlLk6GJQsqaUBKTNV-0"/>
        <mxCell id="zkfFHV4jXpPFQw0GAbJ--51" value="user（用户）" style="swimlane;fontStyle=1;childLayout=stackLayout;horizontal=1;startSize=26;horizontalStack=0;resizeParent=1;resizeLast=0;collapsible=1;marginBottom=0;rounded=0;shadow=0;strokeWidth=1;" parent="WIyWlLk6GJQsqaUBKTNV-1" vertex="1">
          <mxGeometry x="-500" y="320" width="160" height="220" as="geometry">
            <mxRectangle x="20" y="80" width="160" height="26" as="alternateBounds"/>
          </mxGeometry>
        </mxCell>
        <mxCell id="zkfFHV4jXpPFQw0GAbJ--52" value="id" style="shape=partialRectangle;top=0;left=0;right=0;bottom=1;align=left;verticalAlign=top;fillColor=none;spacingLeft=40;spacingRight=4;overflow=hidden;rotatable=0;points=[[0,0.5],[1,0.5]];portConstraint=eastwest;dropTarget=0;rounded=0;shadow=0;strokeWidth=1;fontStyle=4" parent="zkfFHV4jXpPFQw0GAbJ--51" vertex="1">
          <mxGeometry y="26" width="160" height="26" as="geometry"/>
        </mxCell>
        <mxCell id="zkfFHV4jXpPFQw0GAbJ--53" value="PK" style="shape=partialRectangle;top=0;left=0;bottom=0;fillColor=none;align=left;verticalAlign=top;spacingLeft=4;spacingRight=4;overflow=hidden;rotatable=0;points=[];portConstraint=eastwest;part=1;" parent="zkfFHV4jXpPFQw0GAbJ--52" vertex="1" connectable="0">
          <mxGeometry width="36" height="26" as="geometry"/>
        </mxCell>
        <mxCell id="zkfFHV4jXpPFQw0GAbJ--54" value="account&#xa;&#xa;" style="shape=partialRectangle;top=0;left=0;right=0;bottom=0;align=left;verticalAlign=top;fillColor=none;spacingLeft=40;spacingRight=4;overflow=hidden;rotatable=0;points=[[0,0.5],[1,0.5]];portConstraint=eastwest;dropTarget=0;rounded=0;shadow=0;strokeWidth=1;" parent="zkfFHV4jXpPFQw0GAbJ--51" vertex="1">
          <mxGeometry y="52" width="160" height="28" as="geometry"/>
        </mxCell>
        <mxCell id="zkfFHV4jXpPFQw0GAbJ--55" value="" style="shape=partialRectangle;top=0;left=0;bottom=0;fillColor=none;align=left;verticalAlign=top;spacingLeft=4;spacingRight=4;overflow=hidden;rotatable=0;points=[];portConstraint=eastwest;part=1;" parent="zkfFHV4jXpPFQw0GAbJ--54" vertex="1" connectable="0">
          <mxGeometry width="36" height="28" as="geometry"/>
        </mxCell>
        <mxCell id="9jMIC5pWbd9EheL5njLo-23" value="phone&#xa;" style="shape=partialRectangle;top=0;left=0;right=0;bottom=0;align=left;verticalAlign=top;fillColor=none;spacingLeft=40;spacingRight=4;overflow=hidden;rotatable=0;points=[[0,0.5],[1,0.5]];portConstraint=eastwest;dropTarget=0;rounded=0;shadow=0;strokeWidth=1;" parent="zkfFHV4jXpPFQw0GAbJ--51" vertex="1">
          <mxGeometry y="80" width="160" height="28" as="geometry"/>
        </mxCell>
        <mxCell id="9jMIC5pWbd9EheL5njLo-24" value="" style="shape=partialRectangle;top=0;left=0;bottom=0;fillColor=none;align=left;verticalAlign=top;spacingLeft=4;spacingRight=4;overflow=hidden;rotatable=0;points=[];portConstraint=eastwest;part=1;" parent="9jMIC5pWbd9EheL5njLo-23" vertex="1" connectable="0">
          <mxGeometry width="36" height="28" as="geometry"/>
        </mxCell>
        <mxCell id="9jMIC5pWbd9EheL5njLo-25" value="name" style="shape=partialRectangle;top=0;left=0;right=0;bottom=0;align=left;verticalAlign=top;fillColor=none;spacingLeft=40;spacingRight=4;overflow=hidden;rotatable=0;points=[[0,0.5],[1,0.5]];portConstraint=eastwest;dropTarget=0;rounded=0;shadow=0;strokeWidth=1;" parent="zkfFHV4jXpPFQw0GAbJ--51" vertex="1">
          <mxGeometry y="108" width="160" height="28" as="geometry"/>
        </mxCell>
        <mxCell id="9jMIC5pWbd9EheL5njLo-26" value="" style="shape=partialRectangle;top=0;left=0;bottom=0;fillColor=none;align=left;verticalAlign=top;spacingLeft=4;spacingRight=4;overflow=hidden;rotatable=0;points=[];portConstraint=eastwest;part=1;" parent="9jMIC5pWbd9EheL5njLo-25" vertex="1" connectable="0">
          <mxGeometry width="36" height="28" as="geometry"/>
        </mxCell>
        <mxCell id="9jMIC5pWbd9EheL5njLo-27" value="sex" style="shape=partialRectangle;top=0;left=0;right=0;bottom=0;align=left;verticalAlign=top;fillColor=none;spacingLeft=40;spacingRight=4;overflow=hidden;rotatable=0;points=[[0,0.5],[1,0.5]];portConstraint=eastwest;dropTarget=0;rounded=0;shadow=0;strokeWidth=1;" parent="zkfFHV4jXpPFQw0GAbJ--51" vertex="1">
          <mxGeometry y="136" width="160" height="28" as="geometry"/>
        </mxCell>
        <mxCell id="9jMIC5pWbd9EheL5njLo-28" value="" style="shape=partialRectangle;top=0;left=0;bottom=0;fillColor=none;align=left;verticalAlign=top;spacingLeft=4;spacingRight=4;overflow=hidden;rotatable=0;points=[];portConstraint=eastwest;part=1;" parent="9jMIC5pWbd9EheL5njLo-27" vertex="1" connectable="0">
          <mxGeometry width="36" height="28" as="geometry"/>
        </mxCell>
        <mxCell id="9jMIC5pWbd9EheL5njLo-29" value="password" style="shape=partialRectangle;top=0;left=0;right=0;bottom=0;align=left;verticalAlign=top;fillColor=none;spacingLeft=40;spacingRight=4;overflow=hidden;rotatable=0;points=[[0,0.5],[1,0.5]];portConstraint=eastwest;dropTarget=0;rounded=0;shadow=0;strokeWidth=1;" parent="zkfFHV4jXpPFQw0GAbJ--51" vertex="1">
          <mxGeometry y="164" width="160" height="28" as="geometry"/>
        </mxCell>
        <mxCell id="9jMIC5pWbd9EheL5njLo-30" value="" style="shape=partialRectangle;top=0;left=0;bottom=0;fillColor=none;align=left;verticalAlign=top;spacingLeft=4;spacingRight=4;overflow=hidden;rotatable=0;points=[];portConstraint=eastwest;part=1;" parent="9jMIC5pWbd9EheL5njLo-29" vertex="1" connectable="0">
          <mxGeometry width="36" height="28" as="geometry"/>
        </mxCell>
        <mxCell id="9jMIC5pWbd9EheL5njLo-31" value="birthday" style="shape=partialRectangle;top=0;left=0;right=0;bottom=0;align=left;verticalAlign=top;fillColor=none;spacingLeft=40;spacingRight=4;overflow=hidden;rotatable=0;points=[[0,0.5],[1,0.5]];portConstraint=eastwest;dropTarget=0;rounded=0;shadow=0;strokeWidth=1;" parent="zkfFHV4jXpPFQw0GAbJ--51" vertex="1">
          <mxGeometry y="192" width="160" height="28" as="geometry"/>
        </mxCell>
        <mxCell id="9jMIC5pWbd9EheL5njLo-32" value="" style="shape=partialRectangle;top=0;left=0;bottom=0;fillColor=none;align=left;verticalAlign=top;spacingLeft=4;spacingRight=4;overflow=hidden;rotatable=0;points=[];portConstraint=eastwest;part=1;" parent="9jMIC5pWbd9EheL5njLo-31" vertex="1" connectable="0">
          <mxGeometry width="36" height="28" as="geometry"/>
        </mxCell>
        <mxCell id="zkfFHV4jXpPFQw0GAbJ--56" value="plan(计划)" style="swimlane;fontStyle=1;childLayout=stackLayout;horizontal=1;startSize=26;horizontalStack=0;resizeParent=1;resizeLast=0;collapsible=1;marginBottom=0;rounded=0;shadow=0;strokeWidth=1;" parent="WIyWlLk6GJQsqaUBKTNV-1" vertex="1">
          <mxGeometry x="-242.5" y="789" width="160" height="208" as="geometry">
            <mxRectangle x="260" y="80" width="160" height="26" as="alternateBounds"/>
          </mxGeometry>
        </mxCell>
        <mxCell id="zkfFHV4jXpPFQw0GAbJ--57" value="id" style="shape=partialRectangle;top=0;left=0;right=0;bottom=1;align=left;verticalAlign=top;fillColor=none;spacingLeft=40;spacingRight=4;overflow=hidden;rotatable=0;points=[[0,0.5],[1,0.5]];portConstraint=eastwest;dropTarget=0;rounded=0;shadow=0;strokeWidth=1;fontStyle=4" parent="zkfFHV4jXpPFQw0GAbJ--56" vertex="1">
          <mxGeometry y="26" width="160" height="26" as="geometry"/>
        </mxCell>
        <mxCell id="zkfFHV4jXpPFQw0GAbJ--58" value="PK" style="shape=partialRectangle;top=0;left=0;bottom=0;fillColor=none;align=left;verticalAlign=top;spacingLeft=4;spacingRight=4;overflow=hidden;rotatable=0;points=[];portConstraint=eastwest;part=1;" parent="zkfFHV4jXpPFQw0GAbJ--57" vertex="1" connectable="0">
          <mxGeometry width="36" height="26" as="geometry"/>
        </mxCell>
        <mxCell id="zkfFHV4jXpPFQw0GAbJ--59" value="user_id" style="shape=partialRectangle;top=0;left=0;right=0;bottom=0;align=left;verticalAlign=top;fillColor=none;spacingLeft=40;spacingRight=4;overflow=hidden;rotatable=0;points=[[0,0.5],[1,0.5]];portConstraint=eastwest;dropTarget=0;rounded=0;shadow=0;strokeWidth=1;" parent="zkfFHV4jXpPFQw0GAbJ--56" vertex="1">
          <mxGeometry y="52" width="160" height="26" as="geometry"/>
        </mxCell>
        <mxCell id="zkfFHV4jXpPFQw0GAbJ--60" value="" style="shape=partialRectangle;top=0;left=0;bottom=0;fillColor=none;align=left;verticalAlign=top;spacingLeft=4;spacingRight=4;overflow=hidden;rotatable=0;points=[];portConstraint=eastwest;part=1;" parent="zkfFHV4jXpPFQw0GAbJ--59" vertex="1" connectable="0">
          <mxGeometry width="36" height="26" as="geometry"/>
        </mxCell>
        <mxCell id="zkfFHV4jXpPFQw0GAbJ--61" value="name" style="shape=partialRectangle;top=0;left=0;right=0;bottom=0;align=left;verticalAlign=top;fillColor=none;spacingLeft=40;spacingRight=4;overflow=hidden;rotatable=0;points=[[0,0.5],[1,0.5]];portConstraint=eastwest;dropTarget=0;rounded=0;shadow=0;strokeWidth=1;" parent="zkfFHV4jXpPFQw0GAbJ--56" vertex="1">
          <mxGeometry y="78" width="160" height="26" as="geometry"/>
        </mxCell>
        <mxCell id="zkfFHV4jXpPFQw0GAbJ--62" value="" style="shape=partialRectangle;top=0;left=0;bottom=0;fillColor=none;align=left;verticalAlign=top;spacingLeft=4;spacingRight=4;overflow=hidden;rotatable=0;points=[];portConstraint=eastwest;part=1;" parent="zkfFHV4jXpPFQw0GAbJ--61" vertex="1" connectable="0">
          <mxGeometry width="36" height="26" as="geometry"/>
        </mxCell>
        <mxCell id="13Twz9YMJaLdHr7AfSGv-0" value="execution_type" style="shape=partialRectangle;top=0;left=0;right=0;bottom=0;align=left;verticalAlign=top;fillColor=none;spacingLeft=40;spacingRight=4;overflow=hidden;rotatable=0;points=[[0,0.5],[1,0.5]];portConstraint=eastwest;dropTarget=0;rounded=0;shadow=0;strokeWidth=1;" vertex="1" parent="zkfFHV4jXpPFQw0GAbJ--56">
          <mxGeometry y="104" width="160" height="26" as="geometry"/>
        </mxCell>
        <mxCell id="13Twz9YMJaLdHr7AfSGv-1" value="" style="shape=partialRectangle;top=0;left=0;bottom=0;fillColor=none;align=left;verticalAlign=top;spacingLeft=4;spacingRight=4;overflow=hidden;rotatable=0;points=[];portConstraint=eastwest;part=1;" vertex="1" connectable="0" parent="13Twz9YMJaLdHr7AfSGv-0">
          <mxGeometry width="36" height="26" as="geometry"/>
        </mxCell>
        <mxCell id="13Twz9YMJaLdHr7AfSGv-28" value="start_time" style="shape=partialRectangle;top=0;left=0;right=0;bottom=0;align=left;verticalAlign=top;fillColor=none;spacingLeft=40;spacingRight=4;overflow=hidden;rotatable=0;points=[[0,0.5],[1,0.5]];portConstraint=eastwest;dropTarget=0;rounded=0;shadow=0;strokeWidth=1;" vertex="1" parent="zkfFHV4jXpPFQw0GAbJ--56">
          <mxGeometry y="130" width="160" height="26" as="geometry"/>
        </mxCell>
        <mxCell id="13Twz9YMJaLdHr7AfSGv-29" value="" style="shape=partialRectangle;top=0;left=0;bottom=0;fillColor=none;align=left;verticalAlign=top;spacingLeft=4;spacingRight=4;overflow=hidden;rotatable=0;points=[];portConstraint=eastwest;part=1;" vertex="1" connectable="0" parent="13Twz9YMJaLdHr7AfSGv-28">
          <mxGeometry width="36" height="26" as="geometry"/>
        </mxCell>
        <mxCell id="13Twz9YMJaLdHr7AfSGv-46" value="end_time" style="shape=partialRectangle;top=0;left=0;right=0;bottom=0;align=left;verticalAlign=top;fillColor=none;spacingLeft=40;spacingRight=4;overflow=hidden;rotatable=0;points=[[0,0.5],[1,0.5]];portConstraint=eastwest;dropTarget=0;rounded=0;shadow=0;strokeWidth=1;" vertex="1" parent="zkfFHV4jXpPFQw0GAbJ--56">
          <mxGeometry y="156" width="160" height="26" as="geometry"/>
        </mxCell>
        <mxCell id="13Twz9YMJaLdHr7AfSGv-47" value="" style="shape=partialRectangle;top=0;left=0;bottom=0;fillColor=none;align=left;verticalAlign=top;spacingLeft=4;spacingRight=4;overflow=hidden;rotatable=0;points=[];portConstraint=eastwest;part=1;" vertex="1" connectable="0" parent="13Twz9YMJaLdHr7AfSGv-46">
          <mxGeometry width="36" height="26" as="geometry"/>
        </mxCell>
        <mxCell id="13Twz9YMJaLdHr7AfSGv-48" value="status" style="shape=partialRectangle;top=0;left=0;right=0;bottom=0;align=left;verticalAlign=top;fillColor=none;spacingLeft=40;spacingRight=4;overflow=hidden;rotatable=0;points=[[0,0.5],[1,0.5]];portConstraint=eastwest;dropTarget=0;rounded=0;shadow=0;strokeWidth=1;" vertex="1" parent="zkfFHV4jXpPFQw0GAbJ--56">
          <mxGeometry y="182" width="160" height="26" as="geometry"/>
        </mxCell>
        <mxCell id="13Twz9YMJaLdHr7AfSGv-49" value="" style="shape=partialRectangle;top=0;left=0;bottom=0;fillColor=none;align=left;verticalAlign=top;spacingLeft=4;spacingRight=4;overflow=hidden;rotatable=0;points=[];portConstraint=eastwest;part=1;" vertex="1" connectable="0" parent="13Twz9YMJaLdHr7AfSGv-48">
          <mxGeometry width="36" height="26" as="geometry"/>
        </mxCell>
        <mxCell id="zkfFHV4jXpPFQw0GAbJ--64" value="plan_items_execution（计划执行记录）" style="swimlane;fontStyle=1;childLayout=stackLayout;horizontal=1;startSize=26;horizontalStack=0;resizeParent=1;resizeLast=0;collapsible=1;marginBottom=0;rounded=0;shadow=0;strokeWidth=1;" parent="WIyWlLk6GJQsqaUBKTNV-1" vertex="1">
          <mxGeometry x="20" y="560" width="232.5" height="208" as="geometry">
            <mxRectangle x="260" y="270" width="160" height="26" as="alternateBounds"/>
          </mxGeometry>
        </mxCell>
        <mxCell id="zkfFHV4jXpPFQw0GAbJ--65" value="id" style="shape=partialRectangle;top=0;left=0;right=0;bottom=1;align=left;verticalAlign=top;fillColor=none;spacingLeft=40;spacingRight=4;overflow=hidden;rotatable=0;points=[[0,0.5],[1,0.5]];portConstraint=eastwest;dropTarget=0;rounded=0;shadow=0;strokeWidth=1;fontStyle=4" parent="zkfFHV4jXpPFQw0GAbJ--64" vertex="1">
          <mxGeometry y="26" width="232.5" height="26" as="geometry"/>
        </mxCell>
        <mxCell id="zkfFHV4jXpPFQw0GAbJ--66" value="PK" style="shape=partialRectangle;top=0;left=0;bottom=0;fillColor=none;align=left;verticalAlign=top;spacingLeft=4;spacingRight=4;overflow=hidden;rotatable=0;points=[];portConstraint=eastwest;part=1;" parent="zkfFHV4jXpPFQw0GAbJ--65" vertex="1" connectable="0">
          <mxGeometry width="36" height="26" as="geometry"/>
        </mxCell>
        <mxCell id="zkfFHV4jXpPFQw0GAbJ--67" value="plan_items_id" style="shape=partialRectangle;top=0;left=0;right=0;bottom=0;align=left;verticalAlign=top;fillColor=none;spacingLeft=40;spacingRight=4;overflow=hidden;rotatable=0;points=[[0,0.5],[1,0.5]];portConstraint=eastwest;dropTarget=0;rounded=0;shadow=0;strokeWidth=1;" parent="zkfFHV4jXpPFQw0GAbJ--64" vertex="1">
          <mxGeometry y="52" width="232.5" height="26" as="geometry"/>
        </mxCell>
        <mxCell id="zkfFHV4jXpPFQw0GAbJ--68" value="" style="shape=partialRectangle;top=0;left=0;bottom=0;fillColor=none;align=left;verticalAlign=top;spacingLeft=4;spacingRight=4;overflow=hidden;rotatable=0;points=[];portConstraint=eastwest;part=1;" parent="zkfFHV4jXpPFQw0GAbJ--67" vertex="1" connectable="0">
          <mxGeometry width="36" height="26" as="geometry"/>
        </mxCell>
        <mxCell id="13Twz9YMJaLdHr7AfSGv-63" value="create_time" style="shape=partialRectangle;top=0;left=0;right=0;bottom=0;align=left;verticalAlign=top;fillColor=none;spacingLeft=40;spacingRight=4;overflow=hidden;rotatable=0;points=[[0,0.5],[1,0.5]];portConstraint=eastwest;dropTarget=0;rounded=0;shadow=0;strokeWidth=1;" vertex="1" parent="zkfFHV4jXpPFQw0GAbJ--64">
          <mxGeometry y="78" width="232.5" height="26" as="geometry"/>
        </mxCell>
        <mxCell id="13Twz9YMJaLdHr7AfSGv-64" value="" style="shape=partialRectangle;top=0;left=0;bottom=0;fillColor=none;align=left;verticalAlign=top;spacingLeft=4;spacingRight=4;overflow=hidden;rotatable=0;points=[];portConstraint=eastwest;part=1;" vertex="1" connectable="0" parent="13Twz9YMJaLdHr7AfSGv-63">
          <mxGeometry width="36" height="26" as="geometry"/>
        </mxCell>
        <mxCell id="13Twz9YMJaLdHr7AfSGv-65" value="update_time" style="shape=partialRectangle;top=0;left=0;right=0;bottom=0;align=left;verticalAlign=top;fillColor=none;spacingLeft=40;spacingRight=4;overflow=hidden;rotatable=0;points=[[0,0.5],[1,0.5]];portConstraint=eastwest;dropTarget=0;rounded=0;shadow=0;strokeWidth=1;" vertex="1" parent="zkfFHV4jXpPFQw0GAbJ--64">
          <mxGeometry y="104" width="232.5" height="26" as="geometry"/>
        </mxCell>
        <mxCell id="13Twz9YMJaLdHr7AfSGv-66" value="" style="shape=partialRectangle;top=0;left=0;bottom=0;fillColor=none;align=left;verticalAlign=top;spacingLeft=4;spacingRight=4;overflow=hidden;rotatable=0;points=[];portConstraint=eastwest;part=1;" vertex="1" connectable="0" parent="13Twz9YMJaLdHr7AfSGv-65">
          <mxGeometry width="36" height="26" as="geometry"/>
        </mxCell>
        <mxCell id="zkfFHV4jXpPFQw0GAbJ--69" value="costs_id" style="shape=partialRectangle;top=0;left=0;right=0;bottom=0;align=left;verticalAlign=top;fillColor=none;spacingLeft=40;spacingRight=4;overflow=hidden;rotatable=0;points=[[0,0.5],[1,0.5]];portConstraint=eastwest;dropTarget=0;rounded=0;shadow=0;strokeWidth=1;" parent="zkfFHV4jXpPFQw0GAbJ--64" vertex="1">
          <mxGeometry y="130" width="232.5" height="26" as="geometry"/>
        </mxCell>
        <mxCell id="zkfFHV4jXpPFQw0GAbJ--70" value="" style="shape=partialRectangle;top=0;left=0;bottom=0;fillColor=none;align=left;verticalAlign=top;spacingLeft=4;spacingRight=4;overflow=hidden;rotatable=0;points=[];portConstraint=eastwest;part=1;" parent="zkfFHV4jXpPFQw0GAbJ--69" vertex="1" connectable="0">
          <mxGeometry width="36" height="26" as="geometry"/>
        </mxCell>
        <mxCell id="13Twz9YMJaLdHr7AfSGv-69" value="count" style="shape=partialRectangle;top=0;left=0;right=0;bottom=0;align=left;verticalAlign=top;fillColor=none;spacingLeft=40;spacingRight=4;overflow=hidden;rotatable=0;points=[[0,0.5],[1,0.5]];portConstraint=eastwest;dropTarget=0;rounded=0;shadow=0;strokeWidth=1;" vertex="1" parent="zkfFHV4jXpPFQw0GAbJ--64">
          <mxGeometry y="156" width="232.5" height="26" as="geometry"/>
        </mxCell>
        <mxCell id="13Twz9YMJaLdHr7AfSGv-70" value="" style="shape=partialRectangle;top=0;left=0;bottom=0;fillColor=none;align=left;verticalAlign=top;spacingLeft=4;spacingRight=4;overflow=hidden;rotatable=0;points=[];portConstraint=eastwest;part=1;" vertex="1" connectable="0" parent="13Twz9YMJaLdHr7AfSGv-69">
          <mxGeometry width="36" height="26" as="geometry"/>
        </mxCell>
        <mxCell id="13Twz9YMJaLdHr7AfSGv-67" value="result" style="shape=partialRectangle;top=0;left=0;right=0;bottom=0;align=left;verticalAlign=top;fillColor=none;spacingLeft=40;spacingRight=4;overflow=hidden;rotatable=0;points=[[0,0.5],[1,0.5]];portConstraint=eastwest;dropTarget=0;rounded=0;shadow=0;strokeWidth=1;" vertex="1" parent="zkfFHV4jXpPFQw0GAbJ--64">
          <mxGeometry y="182" width="232.5" height="26" as="geometry"/>
        </mxCell>
        <mxCell id="13Twz9YMJaLdHr7AfSGv-68" value="" style="shape=partialRectangle;top=0;left=0;bottom=0;fillColor=none;align=left;verticalAlign=top;spacingLeft=4;spacingRight=4;overflow=hidden;rotatable=0;points=[];portConstraint=eastwest;part=1;" vertex="1" connectable="0" parent="13Twz9YMJaLdHr7AfSGv-67">
          <mxGeometry width="36" height="26" as="geometry"/>
        </mxCell>
        <mxCell id="9jMIC5pWbd9EheL5njLo-33" value="wish（愿望）" style="swimlane;fontStyle=1;childLayout=stackLayout;horizontal=1;startSize=26;horizontalStack=0;resizeParent=1;resizeLast=0;collapsible=1;marginBottom=0;rounded=0;shadow=0;strokeWidth=1;" parent="WIyWlLk6GJQsqaUBKTNV-1" vertex="1">
          <mxGeometry x="-252.5" y="320" width="160" height="286" as="geometry">
            <mxRectangle x="260" y="80" width="160" height="26" as="alternateBounds"/>
          </mxGeometry>
        </mxCell>
        <mxCell id="9jMIC5pWbd9EheL5njLo-34" value="id" style="shape=partialRectangle;top=0;left=0;right=0;bottom=1;align=left;verticalAlign=top;fillColor=none;spacingLeft=40;spacingRight=4;overflow=hidden;rotatable=0;points=[[0,0.5],[1,0.5]];portConstraint=eastwest;dropTarget=0;rounded=0;shadow=0;strokeWidth=1;fontStyle=4" parent="9jMIC5pWbd9EheL5njLo-33" vertex="1">
          <mxGeometry y="26" width="160" height="26" as="geometry"/>
        </mxCell>
        <mxCell id="9jMIC5pWbd9EheL5njLo-35" value="PK" style="shape=partialRectangle;top=0;left=0;bottom=0;fillColor=none;align=left;verticalAlign=top;spacingLeft=4;spacingRight=4;overflow=hidden;rotatable=0;points=[];portConstraint=eastwest;part=1;" parent="9jMIC5pWbd9EheL5njLo-34" vertex="1" connectable="0">
          <mxGeometry width="36" height="26" as="geometry"/>
        </mxCell>
        <mxCell id="9jMIC5pWbd9EheL5njLo-36" value="user_id" style="shape=partialRectangle;top=0;left=0;right=0;bottom=0;align=left;verticalAlign=top;fillColor=none;spacingLeft=40;spacingRight=4;overflow=hidden;rotatable=0;points=[[0,0.5],[1,0.5]];portConstraint=eastwest;dropTarget=0;rounded=0;shadow=0;strokeWidth=1;" parent="9jMIC5pWbd9EheL5njLo-33" vertex="1">
          <mxGeometry y="52" width="160" height="26" as="geometry"/>
        </mxCell>
        <mxCell id="9jMIC5pWbd9EheL5njLo-37" value="" style="shape=partialRectangle;top=0;left=0;bottom=0;fillColor=none;align=left;verticalAlign=top;spacingLeft=4;spacingRight=4;overflow=hidden;rotatable=0;points=[];portConstraint=eastwest;part=1;" parent="9jMIC5pWbd9EheL5njLo-36" vertex="1" connectable="0">
          <mxGeometry width="36" height="26" as="geometry"/>
        </mxCell>
        <mxCell id="13Twz9YMJaLdHr7AfSGv-71" value="role_id" style="shape=partialRectangle;top=0;left=0;right=0;bottom=0;align=left;verticalAlign=top;fillColor=none;spacingLeft=40;spacingRight=4;overflow=hidden;rotatable=0;points=[[0,0.5],[1,0.5]];portConstraint=eastwest;dropTarget=0;rounded=0;shadow=0;strokeWidth=1;" vertex="1" parent="9jMIC5pWbd9EheL5njLo-33">
          <mxGeometry y="78" width="160" height="26" as="geometry"/>
        </mxCell>
        <mxCell id="13Twz9YMJaLdHr7AfSGv-72" value="" style="shape=partialRectangle;top=0;left=0;bottom=0;fillColor=none;align=left;verticalAlign=top;spacingLeft=4;spacingRight=4;overflow=hidden;rotatable=0;points=[];portConstraint=eastwest;part=1;" vertex="1" connectable="0" parent="13Twz9YMJaLdHr7AfSGv-71">
          <mxGeometry width="36" height="26" as="geometry"/>
        </mxCell>
        <mxCell id="9jMIC5pWbd9EheL5njLo-38" value="name" style="shape=partialRectangle;top=0;left=0;right=0;bottom=0;align=left;verticalAlign=top;fillColor=none;spacingLeft=40;spacingRight=4;overflow=hidden;rotatable=0;points=[[0,0.5],[1,0.5]];portConstraint=eastwest;dropTarget=0;rounded=0;shadow=0;strokeWidth=1;" parent="9jMIC5pWbd9EheL5njLo-33" vertex="1">
          <mxGeometry y="104" width="160" height="26" as="geometry"/>
        </mxCell>
        <mxCell id="9jMIC5pWbd9EheL5njLo-39" value="" style="shape=partialRectangle;top=0;left=0;bottom=0;fillColor=none;align=left;verticalAlign=top;spacingLeft=4;spacingRight=4;overflow=hidden;rotatable=0;points=[];portConstraint=eastwest;part=1;" parent="9jMIC5pWbd9EheL5njLo-38" vertex="1" connectable="0">
          <mxGeometry width="36" height="26" as="geometry"/>
        </mxCell>
        <mxCell id="9jMIC5pWbd9EheL5njLo-63" value="content" style="shape=partialRectangle;top=0;left=0;right=0;bottom=0;align=left;verticalAlign=top;fillColor=none;spacingLeft=40;spacingRight=4;overflow=hidden;rotatable=0;points=[[0,0.5],[1,0.5]];portConstraint=eastwest;dropTarget=0;rounded=0;shadow=0;strokeWidth=1;" parent="9jMIC5pWbd9EheL5njLo-33" vertex="1">
          <mxGeometry y="130" width="160" height="26" as="geometry"/>
        </mxCell>
        <mxCell id="9jMIC5pWbd9EheL5njLo-64" value="" style="shape=partialRectangle;top=0;left=0;bottom=0;fillColor=none;align=left;verticalAlign=top;spacingLeft=4;spacingRight=4;overflow=hidden;rotatable=0;points=[];portConstraint=eastwest;part=1;" parent="9jMIC5pWbd9EheL5njLo-63" vertex="1" connectable="0">
          <mxGeometry width="36" height="26" as="geometry"/>
        </mxCell>
        <mxCell id="9jMIC5pWbd9EheL5njLo-115" value="success_effect" style="shape=partialRectangle;top=0;left=0;right=0;bottom=0;align=left;verticalAlign=top;fillColor=none;spacingLeft=40;spacingRight=4;overflow=hidden;rotatable=0;points=[[0,0.5],[1,0.5]];portConstraint=eastwest;dropTarget=0;rounded=0;shadow=0;strokeWidth=1;" parent="9jMIC5pWbd9EheL5njLo-33" vertex="1">
          <mxGeometry y="156" width="160" height="26" as="geometry"/>
        </mxCell>
        <mxCell id="9jMIC5pWbd9EheL5njLo-116" value="" style="shape=partialRectangle;top=0;left=0;bottom=0;fillColor=none;align=left;verticalAlign=top;spacingLeft=4;spacingRight=4;overflow=hidden;rotatable=0;points=[];portConstraint=eastwest;part=1;" parent="9jMIC5pWbd9EheL5njLo-115" vertex="1" connectable="0">
          <mxGeometry width="36" height="26" as="geometry"/>
        </mxCell>
        <mxCell id="9jMIC5pWbd9EheL5njLo-113" value="failed_effect" style="shape=partialRectangle;top=0;left=0;right=0;bottom=0;align=left;verticalAlign=top;fillColor=none;spacingLeft=40;spacingRight=4;overflow=hidden;rotatable=0;points=[[0,0.5],[1,0.5]];portConstraint=eastwest;dropTarget=0;rounded=0;shadow=0;strokeWidth=1;" parent="9jMIC5pWbd9EheL5njLo-33" vertex="1">
          <mxGeometry y="182" width="160" height="26" as="geometry"/>
        </mxCell>
        <mxCell id="9jMIC5pWbd9EheL5njLo-114" value="" style="shape=partialRectangle;top=0;left=0;bottom=0;fillColor=none;align=left;verticalAlign=top;spacingLeft=4;spacingRight=4;overflow=hidden;rotatable=0;points=[];portConstraint=eastwest;part=1;" parent="9jMIC5pWbd9EheL5njLo-113" vertex="1" connectable="0">
          <mxGeometry width="36" height="26" as="geometry"/>
        </mxCell>
        <mxCell id="9jMIC5pWbd9EheL5njLo-69" value="start_time" style="shape=partialRectangle;top=0;left=0;right=0;bottom=0;align=left;verticalAlign=top;fillColor=none;spacingLeft=40;spacingRight=4;overflow=hidden;rotatable=0;points=[[0,0.5],[1,0.5]];portConstraint=eastwest;dropTarget=0;rounded=0;shadow=0;strokeWidth=1;" parent="9jMIC5pWbd9EheL5njLo-33" vertex="1">
          <mxGeometry y="208" width="160" height="26" as="geometry"/>
        </mxCell>
        <mxCell id="9jMIC5pWbd9EheL5njLo-70" value="" style="shape=partialRectangle;top=0;left=0;bottom=0;fillColor=none;align=left;verticalAlign=top;spacingLeft=4;spacingRight=4;overflow=hidden;rotatable=0;points=[];portConstraint=eastwest;part=1;" parent="9jMIC5pWbd9EheL5njLo-69" vertex="1" connectable="0">
          <mxGeometry width="36" height="26" as="geometry"/>
        </mxCell>
        <mxCell id="13Twz9YMJaLdHr7AfSGv-44" value="end_time" style="shape=partialRectangle;top=0;left=0;right=0;bottom=0;align=left;verticalAlign=top;fillColor=none;spacingLeft=40;spacingRight=4;overflow=hidden;rotatable=0;points=[[0,0.5],[1,0.5]];portConstraint=eastwest;dropTarget=0;rounded=0;shadow=0;strokeWidth=1;" vertex="1" parent="9jMIC5pWbd9EheL5njLo-33">
          <mxGeometry y="234" width="160" height="26" as="geometry"/>
        </mxCell>
        <mxCell id="13Twz9YMJaLdHr7AfSGv-45" value="" style="shape=partialRectangle;top=0;left=0;bottom=0;fillColor=none;align=left;verticalAlign=top;spacingLeft=4;spacingRight=4;overflow=hidden;rotatable=0;points=[];portConstraint=eastwest;part=1;" vertex="1" connectable="0" parent="13Twz9YMJaLdHr7AfSGv-44">
          <mxGeometry width="36" height="26" as="geometry"/>
        </mxCell>
        <mxCell id="9jMIC5pWbd9EheL5njLo-80" value="status" style="shape=partialRectangle;top=0;left=0;right=0;bottom=0;align=left;verticalAlign=top;fillColor=none;spacingLeft=40;spacingRight=4;overflow=hidden;rotatable=0;points=[[0,0.5],[1,0.5]];portConstraint=eastwest;dropTarget=0;rounded=0;shadow=0;strokeWidth=1;" parent="9jMIC5pWbd9EheL5njLo-33" vertex="1">
          <mxGeometry y="260" width="160" height="26" as="geometry"/>
        </mxCell>
        <mxCell id="9jMIC5pWbd9EheL5njLo-81" value="" style="shape=partialRectangle;top=0;left=0;bottom=0;fillColor=none;align=left;verticalAlign=top;spacingLeft=4;spacingRight=4;overflow=hidden;rotatable=0;points=[];portConstraint=eastwest;part=1;" parent="9jMIC5pWbd9EheL5njLo-80" vertex="1" connectable="0">
          <mxGeometry width="36" height="26" as="geometry"/>
        </mxCell>
        <mxCell id="9jMIC5pWbd9EheL5njLo-40" value="costs（代价）" style="swimlane;fontStyle=1;childLayout=stackLayout;horizontal=1;startSize=26;horizontalStack=0;resizeParent=1;resizeLast=0;collapsible=1;marginBottom=0;rounded=0;shadow=0;strokeWidth=1;" parent="WIyWlLk6GJQsqaUBKTNV-1" vertex="1">
          <mxGeometry x="177.5" y="350" width="160" height="104" as="geometry">
            <mxRectangle x="260" y="80" width="160" height="26" as="alternateBounds"/>
          </mxGeometry>
        </mxCell>
        <mxCell id="9jMIC5pWbd9EheL5njLo-41" value="id" style="shape=partialRectangle;top=0;left=0;right=0;bottom=1;align=left;verticalAlign=top;fillColor=none;spacingLeft=40;spacingRight=4;overflow=hidden;rotatable=0;points=[[0,0.5],[1,0.5]];portConstraint=eastwest;dropTarget=0;rounded=0;shadow=0;strokeWidth=1;fontStyle=4" parent="9jMIC5pWbd9EheL5njLo-40" vertex="1">
          <mxGeometry y="26" width="160" height="26" as="geometry"/>
        </mxCell>
        <mxCell id="9jMIC5pWbd9EheL5njLo-42" value="PK" style="shape=partialRectangle;top=0;left=0;bottom=0;fillColor=none;align=left;verticalAlign=top;spacingLeft=4;spacingRight=4;overflow=hidden;rotatable=0;points=[];portConstraint=eastwest;part=1;" parent="9jMIC5pWbd9EheL5njLo-41" vertex="1" connectable="0">
          <mxGeometry width="36" height="26" as="geometry"/>
        </mxCell>
        <mxCell id="9jMIC5pWbd9EheL5njLo-43" value="costs_type_id" style="shape=partialRectangle;top=0;left=0;right=0;bottom=0;align=left;verticalAlign=top;fillColor=none;spacingLeft=40;spacingRight=4;overflow=hidden;rotatable=0;points=[[0,0.5],[1,0.5]];portConstraint=eastwest;dropTarget=0;rounded=0;shadow=0;strokeWidth=1;" parent="9jMIC5pWbd9EheL5njLo-40" vertex="1">
          <mxGeometry y="52" width="160" height="26" as="geometry"/>
        </mxCell>
        <mxCell id="9jMIC5pWbd9EheL5njLo-44" value="" style="shape=partialRectangle;top=0;left=0;bottom=0;fillColor=none;align=left;verticalAlign=top;spacingLeft=4;spacingRight=4;overflow=hidden;rotatable=0;points=[];portConstraint=eastwest;part=1;" parent="9jMIC5pWbd9EheL5njLo-43" vertex="1" connectable="0">
          <mxGeometry width="36" height="26" as="geometry"/>
        </mxCell>
        <mxCell id="9jMIC5pWbd9EheL5njLo-45" value="unit" style="shape=partialRectangle;top=0;left=0;right=0;bottom=0;align=left;verticalAlign=top;fillColor=none;spacingLeft=40;spacingRight=4;overflow=hidden;rotatable=0;points=[[0,0.5],[1,0.5]];portConstraint=eastwest;dropTarget=0;rounded=0;shadow=0;strokeWidth=1;" parent="9jMIC5pWbd9EheL5njLo-40" vertex="1">
          <mxGeometry y="78" width="160" height="26" as="geometry"/>
        </mxCell>
        <mxCell id="9jMIC5pWbd9EheL5njLo-46" value="" style="shape=partialRectangle;top=0;left=0;bottom=0;fillColor=none;align=left;verticalAlign=top;spacingLeft=4;spacingRight=4;overflow=hidden;rotatable=0;points=[];portConstraint=eastwest;part=1;" parent="9jMIC5pWbd9EheL5njLo-45" vertex="1" connectable="0">
          <mxGeometry width="36" height="26" as="geometry"/>
        </mxCell>
        <mxCell id="9jMIC5pWbd9EheL5njLo-47" value="wish_costs（愿望代价）" style="swimlane;fontStyle=1;childLayout=stackLayout;horizontal=1;startSize=26;horizontalStack=0;resizeParent=1;resizeLast=0;collapsible=1;marginBottom=0;rounded=0;shadow=0;strokeWidth=1;" parent="WIyWlLk6GJQsqaUBKTNV-1" vertex="1">
          <mxGeometry x="-22.5" y="350" width="160" height="130" as="geometry">
            <mxRectangle x="260" y="80" width="160" height="26" as="alternateBounds"/>
          </mxGeometry>
        </mxCell>
        <mxCell id="9jMIC5pWbd9EheL5njLo-48" value="id" style="shape=partialRectangle;top=0;left=0;right=0;bottom=1;align=left;verticalAlign=top;fillColor=none;spacingLeft=40;spacingRight=4;overflow=hidden;rotatable=0;points=[[0,0.5],[1,0.5]];portConstraint=eastwest;dropTarget=0;rounded=0;shadow=0;strokeWidth=1;fontStyle=4" parent="9jMIC5pWbd9EheL5njLo-47" vertex="1">
          <mxGeometry y="26" width="160" height="26" as="geometry"/>
        </mxCell>
        <mxCell id="9jMIC5pWbd9EheL5njLo-49" value="PK" style="shape=partialRectangle;top=0;left=0;bottom=0;fillColor=none;align=left;verticalAlign=top;spacingLeft=4;spacingRight=4;overflow=hidden;rotatable=0;points=[];portConstraint=eastwest;part=1;" parent="9jMIC5pWbd9EheL5njLo-48" vertex="1" connectable="0">
          <mxGeometry width="36" height="26" as="geometry"/>
        </mxCell>
        <mxCell id="9jMIC5pWbd9EheL5njLo-50" value="wish_id" style="shape=partialRectangle;top=0;left=0;right=0;bottom=0;align=left;verticalAlign=top;fillColor=none;spacingLeft=40;spacingRight=4;overflow=hidden;rotatable=0;points=[[0,0.5],[1,0.5]];portConstraint=eastwest;dropTarget=0;rounded=0;shadow=0;strokeWidth=1;" parent="9jMIC5pWbd9EheL5njLo-47" vertex="1">
          <mxGeometry y="52" width="160" height="26" as="geometry"/>
        </mxCell>
        <mxCell id="9jMIC5pWbd9EheL5njLo-51" value="" style="shape=partialRectangle;top=0;left=0;bottom=0;fillColor=none;align=left;verticalAlign=top;spacingLeft=4;spacingRight=4;overflow=hidden;rotatable=0;points=[];portConstraint=eastwest;part=1;" parent="9jMIC5pWbd9EheL5njLo-50" vertex="1" connectable="0">
          <mxGeometry width="36" height="26" as="geometry"/>
        </mxCell>
        <mxCell id="9jMIC5pWbd9EheL5njLo-52" value="costs_id" style="shape=partialRectangle;top=0;left=0;right=0;bottom=0;align=left;verticalAlign=top;fillColor=none;spacingLeft=40;spacingRight=4;overflow=hidden;rotatable=0;points=[[0,0.5],[1,0.5]];portConstraint=eastwest;dropTarget=0;rounded=0;shadow=0;strokeWidth=1;" parent="9jMIC5pWbd9EheL5njLo-47" vertex="1">
          <mxGeometry y="78" width="160" height="26" as="geometry"/>
        </mxCell>
        <mxCell id="9jMIC5pWbd9EheL5njLo-53" value="" style="shape=partialRectangle;top=0;left=0;bottom=0;fillColor=none;align=left;verticalAlign=top;spacingLeft=4;spacingRight=4;overflow=hidden;rotatable=0;points=[];portConstraint=eastwest;part=1;" parent="9jMIC5pWbd9EheL5njLo-52" vertex="1" connectable="0">
          <mxGeometry width="36" height="26" as="geometry"/>
        </mxCell>
        <mxCell id="9jMIC5pWbd9EheL5njLo-54" value="count" style="shape=partialRectangle;top=0;left=0;right=0;bottom=0;align=left;verticalAlign=top;fillColor=none;spacingLeft=40;spacingRight=4;overflow=hidden;rotatable=0;points=[[0,0.5],[1,0.5]];portConstraint=eastwest;dropTarget=0;rounded=0;shadow=0;strokeWidth=1;" parent="9jMIC5pWbd9EheL5njLo-47" vertex="1">
          <mxGeometry y="104" width="160" height="26" as="geometry"/>
        </mxCell>
        <mxCell id="9jMIC5pWbd9EheL5njLo-55" value="" style="shape=partialRectangle;top=0;left=0;bottom=0;fillColor=none;align=left;verticalAlign=top;spacingLeft=4;spacingRight=4;overflow=hidden;rotatable=0;points=[];portConstraint=eastwest;part=1;" parent="9jMIC5pWbd9EheL5njLo-54" vertex="1" connectable="0">
          <mxGeometry width="36" height="26" as="geometry"/>
        </mxCell>
        <mxCell id="9jMIC5pWbd9EheL5njLo-71" value="wish_pllan（愿望计划）" style="swimlane;fontStyle=1;childLayout=stackLayout;horizontal=1;startSize=26;horizontalStack=0;resizeParent=1;resizeLast=0;collapsible=1;marginBottom=0;rounded=0;shadow=0;strokeWidth=1;" parent="WIyWlLk6GJQsqaUBKTNV-1" vertex="1">
          <mxGeometry x="-290" y="630" width="255" height="104" as="geometry">
            <mxRectangle x="260" y="270" width="160" height="26" as="alternateBounds"/>
          </mxGeometry>
        </mxCell>
        <mxCell id="9jMIC5pWbd9EheL5njLo-72" value="id" style="shape=partialRectangle;top=0;left=0;right=0;bottom=1;align=left;verticalAlign=top;fillColor=none;spacingLeft=40;spacingRight=4;overflow=hidden;rotatable=0;points=[[0,0.5],[1,0.5]];portConstraint=eastwest;dropTarget=0;rounded=0;shadow=0;strokeWidth=1;fontStyle=4" parent="9jMIC5pWbd9EheL5njLo-71" vertex="1">
          <mxGeometry y="26" width="255" height="26" as="geometry"/>
        </mxCell>
        <mxCell id="9jMIC5pWbd9EheL5njLo-73" value="PK" style="shape=partialRectangle;top=0;left=0;bottom=0;fillColor=none;align=left;verticalAlign=top;spacingLeft=4;spacingRight=4;overflow=hidden;rotatable=0;points=[];portConstraint=eastwest;part=1;" parent="9jMIC5pWbd9EheL5njLo-72" vertex="1" connectable="0">
          <mxGeometry width="36" height="26" as="geometry"/>
        </mxCell>
        <mxCell id="9jMIC5pWbd9EheL5njLo-74" value="wish_id" style="shape=partialRectangle;top=0;left=0;right=0;bottom=0;align=left;verticalAlign=top;fillColor=none;spacingLeft=40;spacingRight=4;overflow=hidden;rotatable=0;points=[[0,0.5],[1,0.5]];portConstraint=eastwest;dropTarget=0;rounded=0;shadow=0;strokeWidth=1;" parent="9jMIC5pWbd9EheL5njLo-71" vertex="1">
          <mxGeometry y="52" width="255" height="26" as="geometry"/>
        </mxCell>
        <mxCell id="9jMIC5pWbd9EheL5njLo-75" value="" style="shape=partialRectangle;top=0;left=0;bottom=0;fillColor=none;align=left;verticalAlign=top;spacingLeft=4;spacingRight=4;overflow=hidden;rotatable=0;points=[];portConstraint=eastwest;part=1;" parent="9jMIC5pWbd9EheL5njLo-74" vertex="1" connectable="0">
          <mxGeometry width="36" height="26" as="geometry"/>
        </mxCell>
        <mxCell id="9jMIC5pWbd9EheL5njLo-76" value="plan_id" style="shape=partialRectangle;top=0;left=0;right=0;bottom=0;align=left;verticalAlign=top;fillColor=none;spacingLeft=40;spacingRight=4;overflow=hidden;rotatable=0;points=[[0,0.5],[1,0.5]];portConstraint=eastwest;dropTarget=0;rounded=0;shadow=0;strokeWidth=1;" parent="9jMIC5pWbd9EheL5njLo-71" vertex="1">
          <mxGeometry y="78" width="255" height="26" as="geometry"/>
        </mxCell>
        <mxCell id="9jMIC5pWbd9EheL5njLo-77" value="" style="shape=partialRectangle;top=0;left=0;bottom=0;fillColor=none;align=left;verticalAlign=top;spacingLeft=4;spacingRight=4;overflow=hidden;rotatable=0;points=[];portConstraint=eastwest;part=1;" parent="9jMIC5pWbd9EheL5njLo-76" vertex="1" connectable="0">
          <mxGeometry width="36" height="26" as="geometry"/>
        </mxCell>
        <mxCell id="9jMIC5pWbd9EheL5njLo-82" value="role（角色）" style="swimlane;fontStyle=1;childLayout=stackLayout;horizontal=1;startSize=26;horizontalStack=0;resizeParent=1;resizeLast=0;collapsible=1;marginBottom=0;rounded=0;shadow=0;strokeWidth=1;" parent="WIyWlLk6GJQsqaUBKTNV-1" vertex="1">
          <mxGeometry x="-252.5" y="160" width="160" height="130" as="geometry">
            <mxRectangle x="260" y="80" width="160" height="26" as="alternateBounds"/>
          </mxGeometry>
        </mxCell>
        <mxCell id="9jMIC5pWbd9EheL5njLo-83" value="id" style="shape=partialRectangle;top=0;left=0;right=0;bottom=1;align=left;verticalAlign=top;fillColor=none;spacingLeft=40;spacingRight=4;overflow=hidden;rotatable=0;points=[[0,0.5],[1,0.5]];portConstraint=eastwest;dropTarget=0;rounded=0;shadow=0;strokeWidth=1;fontStyle=4" parent="9jMIC5pWbd9EheL5njLo-82" vertex="1">
          <mxGeometry y="26" width="160" height="26" as="geometry"/>
        </mxCell>
        <mxCell id="9jMIC5pWbd9EheL5njLo-84" value="PK" style="shape=partialRectangle;top=0;left=0;bottom=0;fillColor=none;align=left;verticalAlign=top;spacingLeft=4;spacingRight=4;overflow=hidden;rotatable=0;points=[];portConstraint=eastwest;part=1;" parent="9jMIC5pWbd9EheL5njLo-83" vertex="1" connectable="0">
          <mxGeometry width="36" height="26" as="geometry"/>
        </mxCell>
        <mxCell id="9jMIC5pWbd9EheL5njLo-85" value="role_type_id" style="shape=partialRectangle;top=0;left=0;right=0;bottom=0;align=left;verticalAlign=top;fillColor=none;spacingLeft=40;spacingRight=4;overflow=hidden;rotatable=0;points=[[0,0.5],[1,0.5]];portConstraint=eastwest;dropTarget=0;rounded=0;shadow=0;strokeWidth=1;" parent="9jMIC5pWbd9EheL5njLo-82" vertex="1">
          <mxGeometry y="52" width="160" height="26" as="geometry"/>
        </mxCell>
        <mxCell id="9jMIC5pWbd9EheL5njLo-86" value="" style="shape=partialRectangle;top=0;left=0;bottom=0;fillColor=none;align=left;verticalAlign=top;spacingLeft=4;spacingRight=4;overflow=hidden;rotatable=0;points=[];portConstraint=eastwest;part=1;" parent="9jMIC5pWbd9EheL5njLo-85" vertex="1" connectable="0">
          <mxGeometry width="36" height="26" as="geometry"/>
        </mxCell>
        <mxCell id="9jMIC5pWbd9EheL5njLo-87" value="name" style="shape=partialRectangle;top=0;left=0;right=0;bottom=0;align=left;verticalAlign=top;fillColor=none;spacingLeft=40;spacingRight=4;overflow=hidden;rotatable=0;points=[[0,0.5],[1,0.5]];portConstraint=eastwest;dropTarget=0;rounded=0;shadow=0;strokeWidth=1;" parent="9jMIC5pWbd9EheL5njLo-82" vertex="1">
          <mxGeometry y="78" width="160" height="26" as="geometry"/>
        </mxCell>
        <mxCell id="9jMIC5pWbd9EheL5njLo-88" value="" style="shape=partialRectangle;top=0;left=0;bottom=0;fillColor=none;align=left;verticalAlign=top;spacingLeft=4;spacingRight=4;overflow=hidden;rotatable=0;points=[];portConstraint=eastwest;part=1;" parent="9jMIC5pWbd9EheL5njLo-87" vertex="1" connectable="0">
          <mxGeometry width="36" height="26" as="geometry"/>
        </mxCell>
        <mxCell id="9jMIC5pWbd9EheL5njLo-89" value="description" style="shape=partialRectangle;top=0;left=0;right=0;bottom=0;align=left;verticalAlign=top;fillColor=none;spacingLeft=40;spacingRight=4;overflow=hidden;rotatable=0;points=[[0,0.5],[1,0.5]];portConstraint=eastwest;dropTarget=0;rounded=0;shadow=0;strokeWidth=1;" parent="9jMIC5pWbd9EheL5njLo-82" vertex="1">
          <mxGeometry y="104" width="160" height="26" as="geometry"/>
        </mxCell>
        <mxCell id="9jMIC5pWbd9EheL5njLo-90" value="" style="shape=partialRectangle;top=0;left=0;bottom=0;fillColor=none;align=left;verticalAlign=top;spacingLeft=4;spacingRight=4;overflow=hidden;rotatable=0;points=[];portConstraint=eastwest;part=1;" parent="9jMIC5pWbd9EheL5njLo-89" vertex="1" connectable="0">
          <mxGeometry width="36" height="26" as="geometry"/>
        </mxCell>
        <mxCell id="9jMIC5pWbd9EheL5njLo-95" value="role_type（角色类型）" style="swimlane;fontStyle=1;childLayout=stackLayout;horizontal=1;startSize=26;horizontalStack=0;resizeParent=1;resizeLast=0;collapsible=1;marginBottom=0;rounded=0;shadow=0;strokeWidth=1;" parent="WIyWlLk6GJQsqaUBKTNV-1" vertex="1">
          <mxGeometry x="-500" y="173" width="160" height="104" as="geometry">
            <mxRectangle x="260" y="80" width="160" height="26" as="alternateBounds"/>
          </mxGeometry>
        </mxCell>
        <mxCell id="9jMIC5pWbd9EheL5njLo-96" value="id" style="shape=partialRectangle;top=0;left=0;right=0;bottom=1;align=left;verticalAlign=top;fillColor=none;spacingLeft=40;spacingRight=4;overflow=hidden;rotatable=0;points=[[0,0.5],[1,0.5]];portConstraint=eastwest;dropTarget=0;rounded=0;shadow=0;strokeWidth=1;fontStyle=4" parent="9jMIC5pWbd9EheL5njLo-95" vertex="1">
          <mxGeometry y="26" width="160" height="26" as="geometry"/>
        </mxCell>
        <mxCell id="9jMIC5pWbd9EheL5njLo-97" value="PK" style="shape=partialRectangle;top=0;left=0;bottom=0;fillColor=none;align=left;verticalAlign=top;spacingLeft=4;spacingRight=4;overflow=hidden;rotatable=0;points=[];portConstraint=eastwest;part=1;" parent="9jMIC5pWbd9EheL5njLo-96" vertex="1" connectable="0">
          <mxGeometry width="36" height="26" as="geometry"/>
        </mxCell>
        <mxCell id="9jMIC5pWbd9EheL5njLo-100" value="name" style="shape=partialRectangle;top=0;left=0;right=0;bottom=0;align=left;verticalAlign=top;fillColor=none;spacingLeft=40;spacingRight=4;overflow=hidden;rotatable=0;points=[[0,0.5],[1,0.5]];portConstraint=eastwest;dropTarget=0;rounded=0;shadow=0;strokeWidth=1;" parent="9jMIC5pWbd9EheL5njLo-95" vertex="1">
          <mxGeometry y="52" width="160" height="26" as="geometry"/>
        </mxCell>
        <mxCell id="9jMIC5pWbd9EheL5njLo-101" value="" style="shape=partialRectangle;top=0;left=0;bottom=0;fillColor=none;align=left;verticalAlign=top;spacingLeft=4;spacingRight=4;overflow=hidden;rotatable=0;points=[];portConstraint=eastwest;part=1;" parent="9jMIC5pWbd9EheL5njLo-100" vertex="1" connectable="0">
          <mxGeometry width="36" height="26" as="geometry"/>
        </mxCell>
        <mxCell id="9jMIC5pWbd9EheL5njLo-102" value="description" style="shape=partialRectangle;top=0;left=0;right=0;bottom=0;align=left;verticalAlign=top;fillColor=none;spacingLeft=40;spacingRight=4;overflow=hidden;rotatable=0;points=[[0,0.5],[1,0.5]];portConstraint=eastwest;dropTarget=0;rounded=0;shadow=0;strokeWidth=1;" parent="9jMIC5pWbd9EheL5njLo-95" vertex="1">
          <mxGeometry y="78" width="160" height="26" as="geometry"/>
        </mxCell>
        <mxCell id="9jMIC5pWbd9EheL5njLo-103" value="" style="shape=partialRectangle;top=0;left=0;bottom=0;fillColor=none;align=left;verticalAlign=top;spacingLeft=4;spacingRight=4;overflow=hidden;rotatable=0;points=[];portConstraint=eastwest;part=1;" parent="9jMIC5pWbd9EheL5njLo-102" vertex="1" connectable="0">
          <mxGeometry width="36" height="26" as="geometry"/>
        </mxCell>
        <mxCell id="9jMIC5pWbd9EheL5njLo-104" value="costs_type（代价类型）" style="swimlane;fontStyle=1;childLayout=stackLayout;horizontal=1;startSize=26;horizontalStack=0;resizeParent=1;resizeLast=0;collapsible=1;marginBottom=0;rounded=0;shadow=0;strokeWidth=1;" parent="WIyWlLk6GJQsqaUBKTNV-1" vertex="1">
          <mxGeometry x="177.5" y="173" width="160" height="107" as="geometry">
            <mxRectangle x="260" y="80" width="160" height="26" as="alternateBounds"/>
          </mxGeometry>
        </mxCell>
        <mxCell id="9jMIC5pWbd9EheL5njLo-105" value="id" style="shape=partialRectangle;top=0;left=0;right=0;bottom=1;align=left;verticalAlign=top;fillColor=none;spacingLeft=40;spacingRight=4;overflow=hidden;rotatable=0;points=[[0,0.5],[1,0.5]];portConstraint=eastwest;dropTarget=0;rounded=0;shadow=0;strokeWidth=1;fontStyle=4" parent="9jMIC5pWbd9EheL5njLo-104" vertex="1">
          <mxGeometry y="26" width="160" height="26" as="geometry"/>
        </mxCell>
        <mxCell id="9jMIC5pWbd9EheL5njLo-106" value="PK" style="shape=partialRectangle;top=0;left=0;bottom=0;fillColor=none;align=left;verticalAlign=top;spacingLeft=4;spacingRight=4;overflow=hidden;rotatable=0;points=[];portConstraint=eastwest;part=1;" parent="9jMIC5pWbd9EheL5njLo-105" vertex="1" connectable="0">
          <mxGeometry width="36" height="26" as="geometry"/>
        </mxCell>
        <mxCell id="9jMIC5pWbd9EheL5njLo-107" value="name" style="shape=partialRectangle;top=0;left=0;right=0;bottom=0;align=left;verticalAlign=top;fillColor=none;spacingLeft=40;spacingRight=4;overflow=hidden;rotatable=0;points=[[0,0.5],[1,0.5]];portConstraint=eastwest;dropTarget=0;rounded=0;shadow=0;strokeWidth=1;" parent="9jMIC5pWbd9EheL5njLo-104" vertex="1">
          <mxGeometry y="52" width="160" height="26" as="geometry"/>
        </mxCell>
        <mxCell id="9jMIC5pWbd9EheL5njLo-108" value="" style="shape=partialRectangle;top=0;left=0;bottom=0;fillColor=none;align=left;verticalAlign=top;spacingLeft=4;spacingRight=4;overflow=hidden;rotatable=0;points=[];portConstraint=eastwest;part=1;" parent="9jMIC5pWbd9EheL5njLo-107" vertex="1" connectable="0">
          <mxGeometry width="36" height="26" as="geometry"/>
        </mxCell>
        <mxCell id="9jMIC5pWbd9EheL5njLo-111" value="description" style="shape=partialRectangle;top=0;left=0;right=0;bottom=0;align=left;verticalAlign=top;fillColor=none;spacingLeft=40;spacingRight=4;overflow=hidden;rotatable=0;points=[[0,0.5],[1,0.5]];portConstraint=eastwest;dropTarget=0;rounded=0;shadow=0;strokeWidth=1;" parent="9jMIC5pWbd9EheL5njLo-104" vertex="1">
          <mxGeometry y="78" width="160" height="26" as="geometry"/>
        </mxCell>
        <mxCell id="9jMIC5pWbd9EheL5njLo-112" value="" style="shape=partialRectangle;top=0;left=0;bottom=0;fillColor=none;align=left;verticalAlign=top;spacingLeft=4;spacingRight=4;overflow=hidden;rotatable=0;points=[];portConstraint=eastwest;part=1;" parent="9jMIC5pWbd9EheL5njLo-111" vertex="1" connectable="0">
          <mxGeometry width="36" height="26" as="geometry"/>
        </mxCell>
        <mxCell id="13Twz9YMJaLdHr7AfSGv-17" value="diary（日记）" style="swimlane;fontStyle=1;childLayout=stackLayout;horizontal=1;startSize=26;horizontalStack=0;resizeParent=1;resizeLast=0;collapsible=1;marginBottom=0;rounded=0;shadow=0;strokeWidth=1;" vertex="1" parent="WIyWlLk6GJQsqaUBKTNV-1">
          <mxGeometry x="337.5" y="560" width="205" height="182" as="geometry">
            <mxRectangle x="260" y="270" width="160" height="26" as="alternateBounds"/>
          </mxGeometry>
        </mxCell>
        <mxCell id="13Twz9YMJaLdHr7AfSGv-18" value="id" style="shape=partialRectangle;top=0;left=0;right=0;bottom=1;align=left;verticalAlign=top;fillColor=none;spacingLeft=40;spacingRight=4;overflow=hidden;rotatable=0;points=[[0,0.5],[1,0.5]];portConstraint=eastwest;dropTarget=0;rounded=0;shadow=0;strokeWidth=1;fontStyle=4" vertex="1" parent="13Twz9YMJaLdHr7AfSGv-17">
          <mxGeometry y="26" width="205" height="26" as="geometry"/>
        </mxCell>
        <mxCell id="13Twz9YMJaLdHr7AfSGv-19" value="PK" style="shape=partialRectangle;top=0;left=0;bottom=0;fillColor=none;align=left;verticalAlign=top;spacingLeft=4;spacingRight=4;overflow=hidden;rotatable=0;points=[];portConstraint=eastwest;part=1;" vertex="1" connectable="0" parent="13Twz9YMJaLdHr7AfSGv-18">
          <mxGeometry width="36" height="26" as="geometry"/>
        </mxCell>
        <mxCell id="13Twz9YMJaLdHr7AfSGv-20" value="user_id" style="shape=partialRectangle;top=0;left=0;right=0;bottom=0;align=left;verticalAlign=top;fillColor=none;spacingLeft=40;spacingRight=4;overflow=hidden;rotatable=0;points=[[0,0.5],[1,0.5]];portConstraint=eastwest;dropTarget=0;rounded=0;shadow=0;strokeWidth=1;" vertex="1" parent="13Twz9YMJaLdHr7AfSGv-17">
          <mxGeometry y="52" width="205" height="26" as="geometry"/>
        </mxCell>
        <mxCell id="13Twz9YMJaLdHr7AfSGv-21" value="" style="shape=partialRectangle;top=0;left=0;bottom=0;fillColor=none;align=left;verticalAlign=top;spacingLeft=4;spacingRight=4;overflow=hidden;rotatable=0;points=[];portConstraint=eastwest;part=1;" vertex="1" connectable="0" parent="13Twz9YMJaLdHr7AfSGv-20">
          <mxGeometry width="36" height="26" as="geometry"/>
        </mxCell>
        <mxCell id="13Twz9YMJaLdHr7AfSGv-79" value="title" style="shape=partialRectangle;top=0;left=0;right=0;bottom=0;align=left;verticalAlign=top;fillColor=none;spacingLeft=40;spacingRight=4;overflow=hidden;rotatable=0;points=[[0,0.5],[1,0.5]];portConstraint=eastwest;dropTarget=0;rounded=0;shadow=0;strokeWidth=1;" vertex="1" parent="13Twz9YMJaLdHr7AfSGv-17">
          <mxGeometry y="78" width="205" height="26" as="geometry"/>
        </mxCell>
        <mxCell id="13Twz9YMJaLdHr7AfSGv-80" value="" style="shape=partialRectangle;top=0;left=0;bottom=0;fillColor=none;align=left;verticalAlign=top;spacingLeft=4;spacingRight=4;overflow=hidden;rotatable=0;points=[];portConstraint=eastwest;part=1;" vertex="1" connectable="0" parent="13Twz9YMJaLdHr7AfSGv-79">
          <mxGeometry width="36" height="26" as="geometry"/>
        </mxCell>
        <mxCell id="13Twz9YMJaLdHr7AfSGv-22" value="weather" style="shape=partialRectangle;top=0;left=0;right=0;bottom=0;align=left;verticalAlign=top;fillColor=none;spacingLeft=40;spacingRight=4;overflow=hidden;rotatable=0;points=[[0,0.5],[1,0.5]];portConstraint=eastwest;dropTarget=0;rounded=0;shadow=0;strokeWidth=1;" vertex="1" parent="13Twz9YMJaLdHr7AfSGv-17">
          <mxGeometry y="104" width="205" height="26" as="geometry"/>
        </mxCell>
        <mxCell id="13Twz9YMJaLdHr7AfSGv-23" value="" style="shape=partialRectangle;top=0;left=0;bottom=0;fillColor=none;align=left;verticalAlign=top;spacingLeft=4;spacingRight=4;overflow=hidden;rotatable=0;points=[];portConstraint=eastwest;part=1;" vertex="1" connectable="0" parent="13Twz9YMJaLdHr7AfSGv-22">
          <mxGeometry width="36" height="26" as="geometry"/>
        </mxCell>
        <mxCell id="13Twz9YMJaLdHr7AfSGv-24" value="mood" style="shape=partialRectangle;top=0;left=0;right=0;bottom=0;align=left;verticalAlign=top;fillColor=none;spacingLeft=40;spacingRight=4;overflow=hidden;rotatable=0;points=[[0,0.5],[1,0.5]];portConstraint=eastwest;dropTarget=0;rounded=0;shadow=0;strokeWidth=1;" vertex="1" parent="13Twz9YMJaLdHr7AfSGv-17">
          <mxGeometry y="130" width="205" height="26" as="geometry"/>
        </mxCell>
        <mxCell id="13Twz9YMJaLdHr7AfSGv-25" value="" style="shape=partialRectangle;top=0;left=0;bottom=0;fillColor=none;align=left;verticalAlign=top;spacingLeft=4;spacingRight=4;overflow=hidden;rotatable=0;points=[];portConstraint=eastwest;part=1;" vertex="1" connectable="0" parent="13Twz9YMJaLdHr7AfSGv-24">
          <mxGeometry width="36" height="26" as="geometry"/>
        </mxCell>
        <mxCell id="13Twz9YMJaLdHr7AfSGv-26" value="content" style="shape=partialRectangle;top=0;left=0;right=0;bottom=0;align=left;verticalAlign=top;fillColor=none;spacingLeft=40;spacingRight=4;overflow=hidden;rotatable=0;points=[[0,0.5],[1,0.5]];portConstraint=eastwest;dropTarget=0;rounded=0;shadow=0;strokeWidth=1;" vertex="1" parent="13Twz9YMJaLdHr7AfSGv-17">
          <mxGeometry y="156" width="205" height="26" as="geometry"/>
        </mxCell>
        <mxCell id="13Twz9YMJaLdHr7AfSGv-27" value="" style="shape=partialRectangle;top=0;left=0;bottom=0;fillColor=none;align=left;verticalAlign=top;spacingLeft=4;spacingRight=4;overflow=hidden;rotatable=0;points=[];portConstraint=eastwest;part=1;" vertex="1" connectable="0" parent="13Twz9YMJaLdHr7AfSGv-26">
          <mxGeometry width="36" height="26" as="geometry"/>
        </mxCell>
        <mxCell id="13Twz9YMJaLdHr7AfSGv-30" value="plan_execution_diary（计划执行日记）" style="swimlane;fontStyle=1;childLayout=stackLayout;horizontal=1;startSize=26;horizontalStack=0;resizeParent=1;resizeLast=0;collapsible=1;marginBottom=0;rounded=0;shadow=0;strokeWidth=1;" vertex="1" parent="WIyWlLk6GJQsqaUBKTNV-1">
          <mxGeometry x="337.5" y="802" width="225" height="104" as="geometry">
            <mxRectangle x="260" y="270" width="160" height="26" as="alternateBounds"/>
          </mxGeometry>
        </mxCell>
        <mxCell id="13Twz9YMJaLdHr7AfSGv-31" value="id" style="shape=partialRectangle;top=0;left=0;right=0;bottom=1;align=left;verticalAlign=top;fillColor=none;spacingLeft=40;spacingRight=4;overflow=hidden;rotatable=0;points=[[0,0.5],[1,0.5]];portConstraint=eastwest;dropTarget=0;rounded=0;shadow=0;strokeWidth=1;fontStyle=4" vertex="1" parent="13Twz9YMJaLdHr7AfSGv-30">
          <mxGeometry y="26" width="225" height="26" as="geometry"/>
        </mxCell>
        <mxCell id="13Twz9YMJaLdHr7AfSGv-32" value="PK" style="shape=partialRectangle;top=0;left=0;bottom=0;fillColor=none;align=left;verticalAlign=top;spacingLeft=4;spacingRight=4;overflow=hidden;rotatable=0;points=[];portConstraint=eastwest;part=1;" vertex="1" connectable="0" parent="13Twz9YMJaLdHr7AfSGv-31">
          <mxGeometry width="36" height="26" as="geometry"/>
        </mxCell>
        <mxCell id="13Twz9YMJaLdHr7AfSGv-33" value="plan_execution_id" style="shape=partialRectangle;top=0;left=0;right=0;bottom=0;align=left;verticalAlign=top;fillColor=none;spacingLeft=40;spacingRight=4;overflow=hidden;rotatable=0;points=[[0,0.5],[1,0.5]];portConstraint=eastwest;dropTarget=0;rounded=0;shadow=0;strokeWidth=1;" vertex="1" parent="13Twz9YMJaLdHr7AfSGv-30">
          <mxGeometry y="52" width="225" height="26" as="geometry"/>
        </mxCell>
        <mxCell id="13Twz9YMJaLdHr7AfSGv-34" value="" style="shape=partialRectangle;top=0;left=0;bottom=0;fillColor=none;align=left;verticalAlign=top;spacingLeft=4;spacingRight=4;overflow=hidden;rotatable=0;points=[];portConstraint=eastwest;part=1;" vertex="1" connectable="0" parent="13Twz9YMJaLdHr7AfSGv-33">
          <mxGeometry width="36" height="26" as="geometry"/>
        </mxCell>
        <mxCell id="13Twz9YMJaLdHr7AfSGv-35" value="diary_id" style="shape=partialRectangle;top=0;left=0;right=0;bottom=0;align=left;verticalAlign=top;fillColor=none;spacingLeft=40;spacingRight=4;overflow=hidden;rotatable=0;points=[[0,0.5],[1,0.5]];portConstraint=eastwest;dropTarget=0;rounded=0;shadow=0;strokeWidth=1;" vertex="1" parent="13Twz9YMJaLdHr7AfSGv-30">
          <mxGeometry y="78" width="225" height="26" as="geometry"/>
        </mxCell>
        <mxCell id="13Twz9YMJaLdHr7AfSGv-36" value="" style="shape=partialRectangle;top=0;left=0;bottom=0;fillColor=none;align=left;verticalAlign=top;spacingLeft=4;spacingRight=4;overflow=hidden;rotatable=0;points=[];portConstraint=eastwest;part=1;" vertex="1" connectable="0" parent="13Twz9YMJaLdHr7AfSGv-35">
          <mxGeometry width="36" height="26" as="geometry"/>
        </mxCell>
        <mxCell id="13Twz9YMJaLdHr7AfSGv-37" value="plan_items（计划事项）" style="swimlane;fontStyle=1;childLayout=stackLayout;horizontal=1;startSize=26;horizontalStack=0;resizeParent=1;resizeLast=0;collapsible=1;marginBottom=0;rounded=0;shadow=0;strokeWidth=1;" vertex="1" parent="WIyWlLk6GJQsqaUBKTNV-1">
          <mxGeometry x="57.5" y="802" width="205" height="208" as="geometry">
            <mxRectangle x="260" y="270" width="160" height="26" as="alternateBounds"/>
          </mxGeometry>
        </mxCell>
        <mxCell id="13Twz9YMJaLdHr7AfSGv-38" value="id" style="shape=partialRectangle;top=0;left=0;right=0;bottom=1;align=left;verticalAlign=top;fillColor=none;spacingLeft=40;spacingRight=4;overflow=hidden;rotatable=0;points=[[0,0.5],[1,0.5]];portConstraint=eastwest;dropTarget=0;rounded=0;shadow=0;strokeWidth=1;fontStyle=4" vertex="1" parent="13Twz9YMJaLdHr7AfSGv-37">
          <mxGeometry y="26" width="205" height="26" as="geometry"/>
        </mxCell>
        <mxCell id="13Twz9YMJaLdHr7AfSGv-39" value="PK" style="shape=partialRectangle;top=0;left=0;bottom=0;fillColor=none;align=left;verticalAlign=top;spacingLeft=4;spacingRight=4;overflow=hidden;rotatable=0;points=[];portConstraint=eastwest;part=1;" vertex="1" connectable="0" parent="13Twz9YMJaLdHr7AfSGv-38">
          <mxGeometry width="36" height="26" as="geometry"/>
        </mxCell>
        <mxCell id="13Twz9YMJaLdHr7AfSGv-40" value="plan_id" style="shape=partialRectangle;top=0;left=0;right=0;bottom=0;align=left;verticalAlign=top;fillColor=none;spacingLeft=40;spacingRight=4;overflow=hidden;rotatable=0;points=[[0,0.5],[1,0.5]];portConstraint=eastwest;dropTarget=0;rounded=0;shadow=0;strokeWidth=1;" vertex="1" parent="13Twz9YMJaLdHr7AfSGv-37">
          <mxGeometry y="52" width="205" height="26" as="geometry"/>
        </mxCell>
        <mxCell id="13Twz9YMJaLdHr7AfSGv-41" value="" style="shape=partialRectangle;top=0;left=0;bottom=0;fillColor=none;align=left;verticalAlign=top;spacingLeft=4;spacingRight=4;overflow=hidden;rotatable=0;points=[];portConstraint=eastwest;part=1;" vertex="1" connectable="0" parent="13Twz9YMJaLdHr7AfSGv-40">
          <mxGeometry width="36" height="26" as="geometry"/>
        </mxCell>
        <mxCell id="13Twz9YMJaLdHr7AfSGv-54" value="parent_id" style="shape=partialRectangle;top=0;left=0;right=0;bottom=0;align=left;verticalAlign=top;fillColor=none;spacingLeft=40;spacingRight=4;overflow=hidden;rotatable=0;points=[[0,0.5],[1,0.5]];portConstraint=eastwest;dropTarget=0;rounded=0;shadow=0;strokeWidth=1;" vertex="1" parent="13Twz9YMJaLdHr7AfSGv-37">
          <mxGeometry y="78" width="205" height="26" as="geometry"/>
        </mxCell>
        <mxCell id="13Twz9YMJaLdHr7AfSGv-55" value="" style="shape=partialRectangle;top=0;left=0;bottom=0;fillColor=none;align=left;verticalAlign=top;spacingLeft=4;spacingRight=4;overflow=hidden;rotatable=0;points=[];portConstraint=eastwest;part=1;" vertex="1" connectable="0" parent="13Twz9YMJaLdHr7AfSGv-54">
          <mxGeometry width="36" height="26" as="geometry"/>
        </mxCell>
        <mxCell id="13Twz9YMJaLdHr7AfSGv-75" value="title" style="shape=partialRectangle;top=0;left=0;right=0;bottom=0;align=left;verticalAlign=top;fillColor=none;spacingLeft=40;spacingRight=4;overflow=hidden;rotatable=0;points=[[0,0.5],[1,0.5]];portConstraint=eastwest;dropTarget=0;rounded=0;shadow=0;strokeWidth=1;" vertex="1" parent="13Twz9YMJaLdHr7AfSGv-37">
          <mxGeometry y="104" width="205" height="26" as="geometry"/>
        </mxCell>
        <mxCell id="13Twz9YMJaLdHr7AfSGv-76" value="" style="shape=partialRectangle;top=0;left=0;bottom=0;fillColor=none;align=left;verticalAlign=top;spacingLeft=4;spacingRight=4;overflow=hidden;rotatable=0;points=[];portConstraint=eastwest;part=1;" vertex="1" connectable="0" parent="13Twz9YMJaLdHr7AfSGv-75">
          <mxGeometry width="36" height="26" as="geometry"/>
        </mxCell>
        <mxCell id="13Twz9YMJaLdHr7AfSGv-73" value="content" style="shape=partialRectangle;top=0;left=0;right=0;bottom=0;align=left;verticalAlign=top;fillColor=none;spacingLeft=40;spacingRight=4;overflow=hidden;rotatable=0;points=[[0,0.5],[1,0.5]];portConstraint=eastwest;dropTarget=0;rounded=0;shadow=0;strokeWidth=1;" vertex="1" parent="13Twz9YMJaLdHr7AfSGv-37">
          <mxGeometry y="130" width="205" height="26" as="geometry"/>
        </mxCell>
        <mxCell id="13Twz9YMJaLdHr7AfSGv-74" value="" style="shape=partialRectangle;top=0;left=0;bottom=0;fillColor=none;align=left;verticalAlign=top;spacingLeft=4;spacingRight=4;overflow=hidden;rotatable=0;points=[];portConstraint=eastwest;part=1;" vertex="1" connectable="0" parent="13Twz9YMJaLdHr7AfSGv-73">
          <mxGeometry width="36" height="26" as="geometry"/>
        </mxCell>
        <mxCell id="13Twz9YMJaLdHr7AfSGv-50" value="start_time" style="shape=partialRectangle;top=0;left=0;right=0;bottom=0;align=left;verticalAlign=top;fillColor=none;spacingLeft=40;spacingRight=4;overflow=hidden;rotatable=0;points=[[0,0.5],[1,0.5]];portConstraint=eastwest;dropTarget=0;rounded=0;shadow=0;strokeWidth=1;" vertex="1" parent="13Twz9YMJaLdHr7AfSGv-37">
          <mxGeometry y="156" width="205" height="26" as="geometry"/>
        </mxCell>
        <mxCell id="13Twz9YMJaLdHr7AfSGv-51" value="" style="shape=partialRectangle;top=0;left=0;bottom=0;fillColor=none;align=left;verticalAlign=top;spacingLeft=4;spacingRight=4;overflow=hidden;rotatable=0;points=[];portConstraint=eastwest;part=1;" vertex="1" connectable="0" parent="13Twz9YMJaLdHr7AfSGv-50">
          <mxGeometry width="36" height="26" as="geometry"/>
        </mxCell>
        <mxCell id="13Twz9YMJaLdHr7AfSGv-52" value="end_time" style="shape=partialRectangle;top=0;left=0;right=0;bottom=0;align=left;verticalAlign=top;fillColor=none;spacingLeft=40;spacingRight=4;overflow=hidden;rotatable=0;points=[[0,0.5],[1,0.5]];portConstraint=eastwest;dropTarget=0;rounded=0;shadow=0;strokeWidth=1;" vertex="1" parent="13Twz9YMJaLdHr7AfSGv-37">
          <mxGeometry y="182" width="205" height="26" as="geometry"/>
        </mxCell>
        <mxCell id="13Twz9YMJaLdHr7AfSGv-53" value="" style="shape=partialRectangle;top=0;left=0;bottom=0;fillColor=none;align=left;verticalAlign=top;spacingLeft=4;spacingRight=4;overflow=hidden;rotatable=0;points=[];portConstraint=eastwest;part=1;" vertex="1" connectable="0" parent="13Twz9YMJaLdHr7AfSGv-52">
          <mxGeometry width="36" height="26" as="geometry"/>
        </mxCell>
      </root>
    </mxGraphModel>
  </diagram>
</mxfile>
